<svg id="Livello_1" data-name="Livello 1" xmlns="http://www.w3.org/2000/svg" viewBox="0 0 1080 1080"><defs><style>.cls-1{fill:#e3b23c;}.cls-2{fill:#fff;}</style></defs><path class="cls-1" d="M219.18,500.46v79.07l61.7-31.76a8.74,8.74,0,0,0,0-15.54Z"/><path class="cls-1" d="M183.31,500.46h24.27a0,0,0,0,1,0,0v79.07a0,0,0,0,1,0,0h-9.27a15,15,0,0,1-15-15V500.46A0,0,0,0,1,183.31,500.46Z"/><path class="cls-2" d="M343.68,579.54,326.63,521.3v58.24H301.77V500.47H325a24.86,24.86,0,0,1,7.33,1.12,21.48,21.48,0,0,1,7.05,3.79,30.84,30.84,0,0,1,6.39,7.16,53.27,53.27,0,0,1,5.5,11.24l9.47,34.92V500.47h24.86V556.1a26.31,26.31,0,0,1-1.66,9.53,21.23,21.23,0,0,1-4.67,7.39,21,21,0,0,1-7.28,4.8,24.89,24.89,0,0,1-9.35,1.72Z"/><path class="cls-2" d="M430.56,558.7h45.69v20.84H419.32a25.18,25.18,0,0,1-8.82-1.48,20.33,20.33,0,0,1-6.93-4.27A18.69,18.69,0,0,1,399,567a25,25,0,0,1-1.59-9.23V500.47h78.83V521.3h-54v8.4h54v20.83h-54Q422.39,558.71,430.56,558.7Z"/><path class="cls-2" d="M565.62,500.47V521.3h-33v29q0,8.52,8.41,8.52h24.5v20.72H540.88q-33.27,0-33.26-29.24v-29H488.09V500.47Z"/><path class="cls-2" d="M602.31,550.53v29H577.45V500.47h76.94V521.3H602.31v8.4h52.08v20.83Z"/><path class="cls-2" d="M666.23,579.54V500.47h25v79.07Z"/><path class="cls-2" d="M727.9,500.47V542a30.76,30.76,0,0,0,.88,8,11.24,11.24,0,0,0,2.9,5.15,11.47,11.47,0,0,0,5.21,2.78,30.69,30.69,0,0,0,7.7.83H776v20.72h-35a60.92,60.92,0,0,1-17.52-2.19,25.72,25.72,0,0,1-18.29-18.12,55.31,55.31,0,0,1-2.07-16V500.47Z"/><path class="cls-2" d="M829.81,579.54l-17.16-57.89v57.89H787.79V500.47h23a24.87,24.87,0,0,1,7.34,1.12,22.15,22.15,0,0,1,7.11,3.79,31.6,31.6,0,0,1,6.51,7.16,51.83,51.83,0,0,1,5.56,11.24l5,18,5-18a51.37,51.37,0,0,1,5.57-11.24,31.14,31.14,0,0,1,6.51-7.16,22,22,0,0,1,7.1-3.79,24.87,24.87,0,0,1,7.34-1.12h23v79.07H871.83V521.65l-17.16,57.89Z"/></svg>