<svg id="Livello_1" data-name="Livello 1" xmlns="http://www.w3.org/2000/svg" viewBox="0 0 1080 1080"><defs><style>.cls-1{fill:#e3b23c;}.cls-2{fill:#fff;}</style></defs><path class="cls-1" d="M200.12,500.46h24.27a0,0,0,0,1,0,0v79.07a0,0,0,0,1,0,0h-9.27a15,15,0,0,1-15-15V500.46A0,0,0,0,1,200.12,500.46Z"/><path class="cls-1" d="M236,500.46h24.27a0,0,0,0,1,0,0v79.07a0,0,0,0,1,0,0H251a15,15,0,0,1-15-15V500.46A0,0,0,0,1,236,500.46Z"/><path class="cls-2" d="M326.87,579.53,309.82,521.3v58.23H285V500.47h23.2a25,25,0,0,1,7.34,1.12,21.54,21.54,0,0,1,7,3.79,30.84,30.84,0,0,1,6.39,7.16,53.75,53.75,0,0,1,5.51,11.24l9.46,34.92V500.47h24.86V556.1a26.52,26.52,0,0,1-1.65,9.53,21.39,21.39,0,0,1-4.68,7.39,20.92,20.92,0,0,1-7.28,4.8,24.89,24.89,0,0,1-9.35,1.71Z"/><path class="cls-2" d="M413.75,558.7h45.69v20.83H402.51a25.18,25.18,0,0,1-8.82-1.47,20.42,20.42,0,0,1-6.93-4.27,18.55,18.55,0,0,1-4.55-6.8,24.77,24.77,0,0,1-1.6-9.23V500.47h78.83V521.3h-54v8.4h54v20.83h-54C405.54,556,408.31,558.7,413.75,558.7Z"/><path class="cls-2" d="M548.81,500.47V521.3h-33v29q0,8.52,8.4,8.52h24.5v20.71H524.07q-33.26,0-33.26-29.23v-29H471.28V500.47Z"/><path class="cls-2" d="M585.5,550.53v29H560.65V500.47h76.94V521.3H585.5v8.4h52.09v20.83Z"/><path class="cls-2" d="M649.42,579.53V500.47h25v79.06Z"/><path class="cls-2" d="M711.09,500.47V542a30.71,30.71,0,0,0,.89,8,11.15,11.15,0,0,0,2.9,5.15,11.37,11.37,0,0,0,5.21,2.78,31.08,31.08,0,0,0,7.69.83h31.37v20.71h-35a61,61,0,0,1-17.52-2.18,25.72,25.72,0,0,1-18.29-18.12,55.31,55.31,0,0,1-2.07-16V500.47Z"/><path class="cls-2" d="M813,579.53l-17.16-57.88v57.88H771V500.47h23a25,25,0,0,1,7.34,1.12,22.21,22.21,0,0,1,7.1,3.79,31.14,31.14,0,0,1,6.51,7.16,51.83,51.83,0,0,1,5.56,11.24l5,18,5-18A51.37,51.37,0,0,1,836,512.54a31.14,31.14,0,0,1,6.51-7.16,22.1,22.1,0,0,1,7.1-3.79,24.92,24.92,0,0,1,7.34-1.12h23v79.06H855V521.65l-17.17,57.88Z"/></svg>